<?xml version="1.0" encoding="utf-8"?>
<!-- Generator: Adobe Illustrator 22.0.1, SVG Export Plug-In . SVG Version: 6.00 Build 0)  -->
<svg version="1.1" id="Layer_1" xmlns="http://www.w3.org/2000/svg" xmlns:xlink="http://www.w3.org/1999/xlink" x="0px" y="0px"
	 viewBox="0 0 117.5 25.6" style="enable-background:new 0 0 117.5 25.6;" xml:space="preserve">
<style type="text/css">
	.st0{fill:#FFFFFF;}
</style>
<g>
	<g>
		<path class="st0" d="M6.6,8.5h10.5c-0.1,1.2-0.4,2.4-0.8,3.5c-0.4,1-1,2-1.8,2.7c-0.7,0.8-1.6,1.4-2.6,1.8s-2.1,0.6-3.4,0.6
			c-1.2,0-2.4-0.2-3.4-0.7c-1-0.5-2-1.1-2.7-1.9c-0.8-0.8-1.4-1.7-1.8-2.8C0.2,10.7,0,9.6,0,8.5c0-1.2,0.2-2.3,0.7-3.3
			s1.1-1.9,2-2.7c0.8-0.8,1.8-1.3,2.8-1.8s2.1-0.6,3.3-0.6c1.6,0,3.1,0.4,4.4,1.2c1.3,0.8,2.3,1.9,3,3.3h-3
			c-0.6-0.7-1.3-1.3-2.1-1.6c-0.8-0.3-1.6-0.5-2.5-0.5C7.8,2.5,7,2.7,6.2,3C5.5,3.3,4.8,3.8,4.3,4.4S3.3,5.6,3,6.3
			C2.7,7,2.5,7.8,2.5,8.6c0,0.9,0.2,1.7,0.5,2.4c0.3,0.8,0.8,1.4,1.3,2s1.2,1,1.9,1.4s1.5,0.5,2.3,0.5c1.4,0,2.5-0.4,3.5-1.1
			c1-0.8,1.8-1.7,2.3-2.8H6.6C6.6,10.8,6.6,8.5,6.6,8.5z"/>
	</g>
	<polygon class="st0" points="22.3,3 17.3,3 17.3,0.4 22.5,0.4 24.8,0.4 29.9,0.4 29.9,3 24.9,3 24.9,16.7 22.3,16.7 	"/>
	<polygon class="st0" points="34.2,2.7 34.2,7.1 42,7.1 42,9.4 34.2,9.4 34.2,14.4 43.8,14.4 43.8,16.7 31.6,16.7 31.6,0.4 
		43.8,0.4 43.8,2.7 	"/>
	<g>
		<path class="st0" d="M53.3,14.6c0.9,0,1.7-0.2,2.5-0.5s1.5-0.9,2.1-1.6h3c-0.7,1.4-1.7,2.5-3,3.3c-1.3,0.8-2.8,1.2-4.4,1.2
			c-1.2,0-2.4-0.2-3.4-0.6c-0.5-0.2-1-0.4-1.5-0.8c-0.5-0.3-0.9-0.6-1.3-1c-0.9-0.8-1.5-1.8-2-2.8s-0.7-2.1-0.7-3.2
			c0-1.2,0.2-2.3,0.7-3.3c0.4-1,1.1-2,1.8-2.7c0.8-0.8,1.7-1.4,2.7-1.9C50.9,0.2,52,0,53.2,0c1.6,0,3.1,0.4,4.4,1.1
			C58.9,1.9,60,3,60.8,4.4h-2.9c-0.6-0.7-1.3-1.2-2.1-1.6s-1.7-0.5-2.6-0.5c-0.8,0-1.6,0.2-2.3,0.5S49.5,3.6,49,4.2
			c-0.6,0.6-1,1.2-1.3,2s-0.5,1.6-0.5,2.4s0.2,1.6,0.5,2.3c0.3,0.7,0.8,1.4,1.3,1.9c0.6,0.5,1.2,1,1.9,1.3
			C51.7,14.5,52.5,14.6,53.3,14.6"/>
	</g>
	<polygon class="st0" points="75.7,0.4 76.2,0.4 76.2,16.7 73.6,16.7 73.6,9.4 65,9.4 65,16.7 62.4,16.7 62.4,0.4 65,0.4 65,7.1 
		73.6,7.1 73.6,0.4 	"/>
	<g>
		<path class="st0" d="M88.4,1.1c0.9,0.4,1.6,1,2.2,1.8c0.6,0.7,1,1.6,1.3,2.6s0.4,2,0.4,3.1v8.1h-2.6V8.6c0-0.7-0.1-1.4-0.3-2
			c-0.2-0.7-0.4-1.3-0.8-1.8s-0.8-0.9-1.4-1.3C86.6,3.2,86,3,85.2,3h-4.1v13.7h-2.5V0.4h6.7C86.5,0.5,87.5,0.7,88.4,1.1"/>
	</g>
	<rect x="94.7" y="0.4" class="st0" width="2.6" height="16.2"/>
	<g>
		<path class="st0" d="M113.1,12.1c0.4-0.5,0.7-1.1,0.9-1.7s0.3-1.3,0.3-1.9c0-0.8-0.2-1.6-0.5-2.4c-0.3-0.7-0.7-1.4-1.3-1.9
			c-0.5-0.5-1.2-1-1.9-1.3s-1.5-0.5-2.3-0.5s-1.6,0.2-2.3,0.5c-0.7,0.3-1.4,0.8-1.9,1.3s-1,1.2-1.3,1.9c-0.3,0.7-0.5,1.5-0.5,2.4
			c0,0.8,0.2,1.6,0.5,2.3s0.8,1.4,1.3,1.9c0.6,0.5,1.2,1,1.9,1.3c0.7,0.3,1.5,0.5,2.3,0.5c1.1,0,2.1-0.3,3-0.8L107.1,9l2.1-1.3
			L113.1,12.1z M117.1,16.7H114l-0.9-1.1c-0.7,0.5-1.4,0.8-2.2,1.1c-0.8,0.2-1.6,0.4-2.5,0.4c-1.2,0-2.3-0.2-3.3-0.7
			c-1-0.5-1.9-1.1-2.7-1.8c-0.8-0.8-1.4-1.7-1.8-2.7s-0.7-2.1-0.7-3.3c0-1.2,0.2-2.3,0.7-3.3s1.1-2,1.8-2.7c0.8-0.8,1.7-1.4,2.7-1.8
			s2.2-0.7,3.3-0.7c1.2,0,2.3,0.2,3.3,0.7c1,0.4,1.9,1,2.7,1.8s1.4,1.7,1.9,2.7c0.4,1,0.7,2.1,0.7,3.3c0,1.1-0.2,2.1-0.6,3
			c-0.4,0.9-0.9,1.8-1.5,2.5L117.1,16.7z"/>
		<path class="st0" d="M0.6,24.4c0.1,0.2,0.2,0.3,0.3,0.4C1,24.9,1.2,25,1.4,25s0.4,0.1,0.6,0.1c0.1,0,0.3,0,0.4,0s0.3-0.1,0.4-0.2
			c0.1-0.1,0.2-0.2,0.3-0.3s0.1-0.3,0.1-0.5c0-0.1,0-0.2-0.1-0.3S3,23.6,2.9,23.6s-0.2-0.1-0.3-0.2c-0.1,0-0.2-0.1-0.4-0.1L1.1,23
			c-0.1,0-0.3-0.1-0.4-0.1c-0.1-0.1-0.2-0.1-0.4-0.2s-0.2-0.2-0.2-0.3S0,22.1,0,21.9c0-0.1,0-0.3,0.1-0.4c0-0.2,0.1-0.3,0.2-0.5
			s0.3-0.3,0.5-0.4c0.2-0.1,0.5-0.2,0.8-0.2c0.2,0,0.5,0,0.7,0.1s0.4,0.2,0.6,0.3s0.3,0.3,0.4,0.5s0.1,0.4,0.1,0.7H2.9
			c0-0.2,0-0.3-0.1-0.5c-0.1-0.1-0.2-0.2-0.3-0.3C2.4,21.1,2.2,21,2.1,21c-0.2,0-0.3-0.1-0.5-0.1s-0.3,0-0.5,0S0.8,21,0.7,21.1
			c-0.1,0.1-0.2,0.2-0.3,0.3c0.3,0,0.3,0.2,0.3,0.3s0,0.2,0.1,0.3c0,0.1,0.1,0.2,0.2,0.2c0.1,0.1,0.1,0.1,0.2,0.1s0.2,0.1,0.3,0.1
			l1.2,0.3c0.2,0,0.3,0.1,0.5,0.2c0.1,0.1,0.3,0.2,0.4,0.2c0.1,0.1,0.2,0.2,0.3,0.4C4,23.6,4,23.8,4,24c0,0,0,0.1,0,0.2
			s0,0.2-0.1,0.3c0,0.1-0.1,0.2-0.2,0.3s-0.3,0.3-0.5,0.3s-0.3,0.2-0.5,0.2S2.2,25.4,2,25.4s-0.5,0-0.8-0.1C1,25.2,0.7,25.1,0.6,25
			c-0.2-0.1-0.3-0.3-0.4-0.5S0.1,24,0.1,23.7h0.5C0.5,24,0.6,24.2,0.6,24.4"/>
	</g>
	<polygon class="st0" points="6.9,20.5 8.5,24.7 10.2,20.5 10.9,20.5 10.9,25.3 10.4,25.3 10.4,21.1 10.4,21.1 8.7,25.3 8.3,25.3 
		6.7,21.1 6.7,21.1 6.7,25.3 6.2,25.3 6.2,20.5 	"/>
	<path class="st0" d="M16.1,23.4l-0.9-2.5l-1,2.5H16.1z M15.4,20.5l1.9,4.8h-0.5l-0.6-1.5H14l-0.6,1.5h-0.5l1.9-4.8H15.4z"/>
	<g>
		<path class="st0" d="M21.7,22.8c0.1,0,0.3,0,0.4-0.1s0.2-0.1,0.3-0.2c0.1-0.1,0.2-0.2,0.2-0.3c0.1-0.1,0.1-0.2,0.1-0.4
			c0-0.3-0.1-0.5-0.3-0.7s-0.4-0.3-0.8-0.3h-1.7v1.9L21.7,22.8L21.7,22.8z M21.7,20.5c0.2,0,0.4,0,0.6,0.1c0.2,0,0.3,0.1,0.5,0.2
			c0.1,0.1,0.2,0.2,0.3,0.4s0.1,0.3,0.1,0.6s-0.1,0.6-0.2,0.8S22.6,23,22.3,23l0,0c0.2,0,0.3,0.1,0.4,0.1c0.1,0.1,0.2,0.1,0.2,0.2
			c0.1,0.1,0.1,0.2,0.1,0.3s0,0.3,0.1,0.4c0,0.1,0,0.2,0,0.3s0,0.2,0,0.3s0,0.2,0.1,0.3s0.1,0.2,0.1,0.2h-0.5c0,0,0-0.1-0.1-0.2
			c0-0.1,0-0.1,0-0.2c0-0.1,0-0.1,0-0.2c0-0.1,0-0.1,0-0.2c0-0.2,0-0.3,0-0.5s-0.1-0.3-0.1-0.5s-0.2-0.2-0.3-0.3s-0.3-0.1-0.5-0.1
			H20v2.2h-0.5v-4.8h2.2V20.5z"/>
	</g>
	<polygon class="st0" points="29,20.5 29,20.9 27.3,20.9 27.3,25.3 26.9,25.3 26.9,20.9 25.2,20.9 25.2,20.5 	"/>
	<g>
		<path class="st0" d="M35.1,24.4c0.1,0.2,0.2,0.3,0.3,0.4c0.1,0.1,0.3,0.2,0.5,0.2s0.4,0.1,0.6,0.1c0.1,0,0.3,0,0.4,0
			s0.3-0.1,0.4-0.2c0.1-0.1,0.2-0.2,0.3-0.3s0.1-0.3,0.1-0.5c0-0.1,0-0.2-0.1-0.3s-0.1-0.2-0.2-0.2s-0.2-0.1-0.3-0.2
			c-0.1,0-0.2-0.1-0.3-0.1l-1.1-0.4c-0.1,0-0.3-0.1-0.4-0.1c-0.1-0.1-0.2-0.1-0.3-0.2s-0.2-0.2-0.2-0.3s-0.1-0.3-0.1-0.5
			c0-0.1,0-0.3,0.1-0.4c0-0.2,0.1-0.3,0.2-0.5s0.3-0.3,0.5-0.4c0.2-0.1,0.5-0.2,0.8-0.2c0.2,0,0.5,0,0.7,0.1s0.4,0.2,0.6,0.3
			c0.2,0.1,0.3,0.3,0.4,0.5c0.1,0.2,0.2,0.4,0.2,0.7h-0.5c0-0.2,0-0.3-0.1-0.5c-0.1-0.1-0.2-0.2-0.3-0.3s-0.3-0.2-0.4-0.2
			c-0.2,0-0.3-0.1-0.5-0.1s-0.3,0-0.5,0s-0.3,0.1-0.4,0.2s-0.2,0.2-0.3,0.3s-0.1,0.3-0.1,0.5c0,0.1,0,0.2,0.1,0.3s0.1,0.2,0.2,0.2
			c0.1,0.1,0.2,0.1,0.2,0.1s0.2,0.1,0.3,0.1l1.2,0.3c0.2,0,0.3,0.1,0.5,0.2c0.2,0.1,0.3,0.2,0.4,0.2c0.1,0.1,0.2,0.2,0.3,0.4
			s0.1,0.3,0.1,0.5c0,0,0,0.1,0,0.2c0,0.1,0,0.2-0.1,0.3c0,0.1-0.1,0.2-0.2,0.3s-0.3,0.2-0.5,0.2s-0.3,0.2-0.5,0.2s-0.5,0.1-0.7,0.1
			s-0.5,0-0.8-0.1S35.1,25.1,35,25c-0.2-0.1-0.3-0.3-0.4-0.5c-0.1-0.2-0.1-0.5-0.1-0.8H35C35,24,35,24.2,35.1,24.4"/>
		<path class="st0" d="M41.1,20.5v3c0,0.3,0,0.5,0.1,0.7s0.2,0.4,0.3,0.5s0.3,0.2,0.5,0.3s0.4,0.1,0.6,0.1c0.2,0,0.4,0,0.6-0.1
			c0.2-0.1,0.3-0.2,0.5-0.3c0.1-0.1,0.2-0.3,0.3-0.5s0.1-0.4,0.1-0.7v-3h0.5v3.1c0,0.2,0,0.5-0.1,0.7s-0.2,0.4-0.3,0.6
			s-0.3,0.3-0.6,0.4s-0.5,0.2-0.9,0.2s-0.6,0-0.9-0.2c-0.2-0.1-0.4-0.2-0.6-0.4c-0.2-0.2-0.3-0.4-0.3-0.6c-0.2-0.2-0.2-0.5-0.2-0.7
			v-3.1H41.1z"/>
		<path class="st0" d="M49.2,22.8c0.1,0,0.3,0,0.4-0.1c0.1,0,0.2-0.1,0.3-0.2c0.1-0.1,0.2-0.2,0.2-0.3c0.1-0.1,0.1-0.2,0.1-0.4
			c0-0.3-0.1-0.5-0.3-0.7c-0.2-0.2-0.4-0.3-0.8-0.3h-1.7v1.9L49.2,22.8L49.2,22.8z M49.3,20.5c0.2,0,0.4,0,0.6,0.1
			c0.2,0,0.3,0.1,0.5,0.2c0.1,0.1,0.2,0.2,0.3,0.4s0.1,0.3,0.1,0.6s-0.1,0.6-0.2,0.8c-0.2,0.2-0.4,0.4-0.7,0.4l0,0
			c0.2,0,0.3,0.1,0.4,0.1c0.1,0.1,0.2,0.1,0.2,0.2c0.1,0.1,0.1,0.2,0.1,0.3s0.1,0.3,0.1,0.4c0,0.1,0,0.2,0,0.3s0,0.2,0,0.3
			s0,0.2,0.1,0.3s0.1,0.2,0.1,0.2h-0.5c0,0-0.1-0.1-0.1-0.2c0-0.1,0-0.1,0-0.2c0-0.1,0-0.1,0-0.2c0-0.1,0-0.1,0-0.2
			c0-0.2,0-0.3,0-0.5s-0.1-0.3-0.1-0.5S50,23.1,49.9,23s-0.3-0.1-0.5-0.1h-1.8v2.2h-0.5v-4.8h2.2V20.5z"/>
	</g>
	<polygon class="st0" points="56.3,20.5 56.3,20.9 53.7,20.9 53.7,22.6 56,22.6 56,23 53.7,23 53.7,25.3 53.3,25.3 53.3,20.5 	"/>
	<path class="st0" d="M60.8,23.4l-0.9-2.5l-1,2.5H60.8z M60.1,20.5l1.9,4.8h-0.5l-0.6-1.5h-2.2l-0.6,1.5h-0.4l1.9-4.8H60.1z"/>
	<g>
		<path class="st0" d="M67.5,21.5c-0.1-0.2-0.2-0.3-0.3-0.4s-0.3-0.2-0.4-0.2c-0.2,0-0.3-0.1-0.5-0.1c-0.3,0-0.6,0.1-0.8,0.2
			s-0.4,0.3-0.6,0.5s-0.2,0.4-0.3,0.7s-0.1,0.5-0.1,0.8s0,0.5,0.1,0.8s0.2,0.5,0.3,0.7c0.2,0.2,0.3,0.4,0.6,0.5s0.5,0.2,0.8,0.2
			c0.2,0,0.4,0,0.6-0.1s0.3-0.2,0.5-0.3c0.1-0.1,0.2-0.3,0.3-0.5c0.1-0.2,0.1-0.4,0.2-0.6h0.5c0,0.3-0.1,0.6-0.2,0.8
			s-0.2,0.4-0.4,0.6c-0.2,0.2-0.4,0.3-0.6,0.4c-0.2,0.1-0.5,0.1-0.8,0.1c-0.4,0-0.7-0.1-1-0.2s-0.5-0.3-0.7-0.5s-0.3-0.5-0.4-0.8
			s-0.1-0.6-0.1-1c0-0.3,0.1-0.7,0.1-1c0.1-0.3,0.2-0.6,0.4-0.8s0.4-0.4,0.7-0.6c0.3-0.1,0.6-0.2,1-0.2c0.2,0,0.5,0,0.7,0.1
			s0.4,0.2,0.6,0.3s0.3,0.3,0.4,0.5s0.2,0.4,0.2,0.7h-0.6C67.6,21.8,67.6,21.6,67.5,21.5"/>
	</g>
	<polygon class="st0" points="74,20.5 74,20.9 71.1,20.9 71.1,22.6 73.8,22.6 73.8,23 71.1,23 71.1,24.9 74,24.9 74,25.3 70.6,25.3 
		70.6,20.5 	"/>
	<g>
		<path class="st0" d="M80.2,24.4c0.1,0.2,0.2,0.3,0.3,0.4c0.1,0.1,0.3,0.2,0.5,0.2s0.4,0.1,0.6,0.1c0.1,0,0.3,0,0.4,0
			s0.3-0.1,0.4-0.2c0.1-0.1,0.2-0.2,0.3-0.3s0.1-0.3,0.1-0.5c0-0.1,0-0.2-0.1-0.3s-0.1-0.2-0.2-0.2s-0.2-0.1-0.3-0.2
			c-0.1,0-0.2-0.1-0.3-0.1L80.8,23c-0.1,0-0.3-0.1-0.4-0.1c-0.1-0.1-0.2-0.1-0.3-0.2s-0.2-0.2-0.2-0.3s-0.1-0.3-0.1-0.5
			c0-0.1,0-0.3,0.1-0.4c0-0.2,0.1-0.3,0.2-0.5s0.3-0.3,0.5-0.4c0.2-0.1,0.5-0.2,0.8-0.2c0.2,0,0.5,0,0.7,0.1s0.4,0.2,0.6,0.3
			s0.3,0.3,0.4,0.5s0.2,0.4,0.2,0.7h-0.5c0-0.2-0.1-0.3-0.1-0.5c-0.1-0.1-0.2-0.2-0.3-0.3C82.3,21.1,82.1,21,82,21
			c-0.2,0-0.3-0.1-0.5-0.1s-0.3,0-0.5,0s-0.3,0.1-0.4,0.2s-0.2,0.2-0.3,0.3s-0.1,0.3-0.1,0.5c0,0.1,0,0.2,0.1,0.3s0.1,0.2,0.2,0.2
			c0.1,0.1,0.2,0.1,0.2,0.1s0.2,0.1,0.3,0.1l1.2,0.3c0.2,0,0.3,0.1,0.5,0.2c0.2,0.1,0.3,0.2,0.4,0.2c0.1,0.1,0.2,0.2,0.3,0.4
			s0.1,0.3,0.1,0.5c0,0,0,0.1,0,0.2c0,0.1,0,0.2-0.1,0.3c0,0.1-0.1,0.2-0.2,0.3s-0.2,0.2-0.3,0.3s-0.3,0.2-0.5,0.2s-0.4,0.1-0.7,0.1
			s-0.6,0-0.8-0.1s-0.4-0.2-0.6-0.3s-0.3-0.3-0.4-0.5s-0.1-0.5-0.1-0.8h0.5C80.1,24,80.1,24.2,80.2,24.4"/>
		<path class="st0" d="M89.2,21.5c-0.1-0.2-0.2-0.3-0.3-0.4s-0.3-0.2-0.4-0.2c-0.2,0-0.3-0.1-0.5-0.1c-0.3,0-0.6,0.1-0.8,0.2
			s-0.4,0.3-0.6,0.5s-0.3,0.4-0.3,0.7c-0.1,0.2-0.1,0.5-0.1,0.8s0,0.5,0.1,0.8s0.2,0.5,0.3,0.7c0.2,0.2,0.3,0.4,0.6,0.5
			s0.5,0.2,0.8,0.2c0.2,0,0.4,0,0.6-0.1s0.3-0.2,0.5-0.3c0.1-0.1,0.2-0.3,0.3-0.5c0.1-0.2,0.1-0.4,0.2-0.6h0.5
			c0,0.3-0.1,0.6-0.2,0.8s-0.2,0.4-0.4,0.6c-0.2,0.2-0.4,0.3-0.6,0.4c-0.2,0.1-0.5,0.1-0.8,0.1c-0.4,0-0.7-0.1-1-0.2
			s-0.5-0.3-0.7-0.5s-0.3-0.5-0.4-0.8s-0.1-0.6-0.1-1c0-0.3,0.1-0.7,0.1-1c0.1-0.3,0.2-0.6,0.4-0.8s0.4-0.4,0.7-0.6
			c0.3-0.1,0.6-0.2,1-0.2c0.2,0,0.5,0,0.7,0.1s0.4,0.2,0.6,0.3s0.3,0.3,0.4,0.5s0.2,0.4,0.2,0.7h-0.5C89.4,21.8,89.3,21.6,89.2,21.5
			"/>
	</g>
	<rect x="92.4" y="20.5" class="st0" width="0.5" height="4.8"/>
	<polygon class="st0" points="98.9,20.5 98.9,20.9 96,20.9 96,22.6 98.7,22.6 98.7,23 96,23 96,24.9 98.9,24.9 98.9,25.3 95.5,25.3 
		95.5,20.5 	"/>
	<polygon class="st0" points="101.7,20.5 104.5,24.6 104.5,24.6 104.5,20.5 105,20.5 105,25.3 104.5,25.3 101.7,21.2 101.7,21.2 
		101.7,25.3 101.2,25.3 101.2,20.5 	"/>
	<g>
		<path class="st0" d="M111,21.5c-0.1-0.2-0.2-0.3-0.3-0.4s-0.3-0.2-0.4-0.2c-0.2,0-0.3-0.1-0.5-0.1c-0.3,0-0.6,0.1-0.8,0.2
			s-0.4,0.3-0.6,0.5s-0.3,0.4-0.3,0.7c-0.1,0.2-0.1,0.5-0.1,0.8s0,0.5,0.1,0.8s0.2,0.5,0.3,0.7c0.2,0.2,0.3,0.4,0.6,0.5
			s0.5,0.2,0.8,0.2c0.2,0,0.4,0,0.6-0.1c0.2-0.1,0.3-0.2,0.5-0.3c0.1-0.1,0.2-0.3,0.3-0.5s0.1-0.4,0.1-0.6h0.5
			c0,0.3-0.1,0.6-0.2,0.8s-0.2,0.4-0.4,0.6c-0.2,0.2-0.4,0.3-0.6,0.4c-0.2,0.1-0.5,0.1-0.8,0.1c-0.4,0-0.7-0.1-1-0.2
			s-0.5-0.3-0.7-0.5s-0.3-0.5-0.4-0.8s-0.1-0.6-0.1-1c0-0.3,0.1-0.7,0.1-1s0.2-0.6,0.4-0.8s0.4-0.4,0.7-0.6c0.3-0.1,0.6-0.2,1-0.2
			c0.2,0,0.5,0,0.7,0.1s0.4,0.2,0.6,0.3c0.2,0.1,0.3,0.3,0.4,0.5s0.2,0.4,0.2,0.7h-0.5C111.2,21.8,111.1,21.6,111,21.5"/>
	</g>
	<polygon class="st0" points="117.5,20.5 117.5,20.9 114.6,20.9 114.6,22.6 117.3,22.6 117.3,23 114.6,23 114.6,24.9 117.5,24.9 
		117.5,25.3 114.1,25.3 114.1,20.5 	"/>
</g>
</svg>
